<?xml version="1.0" encoding="utf-8"?>
<!-- Generator: Adobe Illustrator 21.0.0, SVG Export Plug-In . SVG Version: 6.00 Build 0)  -->
<svg version="1.1" id="Layer_1" xmlns="http://www.w3.org/2000/svg" xmlns:xlink="http://www.w3.org/1999/xlink" x="0px" y="0px"
	 viewBox="0 0 792 612" style="enable-background:new 0 0 792 612;" xml:space="preserve">
<g>
	<polygon points="681.2,199.8 752,199.8 752,131.3 350.5,131.3 350.5,386 427.7,386 427.7,199.8 595.3,199.8 595.3,540.5 
		681.2,540.5 	"/>
	<polygon points="528,525.9 528,594.4 752,594.4 752,525.9 681.2,525.9 681.2,456.1 595.3,456.1 595.3,525.9 	"/>
</g>
<g>
	<polygon points="471.7,234.1 471.7,420.2 304,420.2 304,59.2 218.2,59.2 218.2,420.2 147.3,420.2 147.3,488.7 548.8,488.7 
		548.8,234.1 	"/>
	<polygon points="304,94 397.4,94 397.4,25.5 147.3,25.5 147.3,94 218.2,94 218.2,143.5 304,143.5 	"/>
</g>
</svg>
