<?xml version="1.0" encoding="utf-8"?>
<!-- Generator: Adobe Illustrator 21.0.0, SVG Export Plug-In . SVG Version: 6.00 Build 0)  -->
<svg version="1.1" id="Layer_1" xmlns="http://www.w3.org/2000/svg" xmlns:xlink="http://www.w3.org/1999/xlink" x="0px" y="0px"
	 viewBox="0 0 792 612" style="enable-background:new 0 0 792 612;" xml:space="preserve">
<path d="M703.9,15L652,246.6l-58.3,218.9c-7.7,25.6-11.5,47.8-11.5,66.5c0,33.7,18.2,53.1,54.7,58.4c8.2,1.2,12.4,3.6,12.4,7.3
	c0,6.1-4.1,9.1-12.4,9.1l-79.9-2.2l-73.3,0.9l-43.3-0.4l-22.1,0.9c-9.7,0-14.6-2.9-14.6-8.8c0-5.3,4-8.2,11.9-8.8
	c29.7-3.2,50.8-14.4,63.3-33.5c12.5-19.1,32.2-76.7,59-172.6c-5.3-0.3-49-0.5-131.1-0.5l-23.5-0.5c-15.7,0-31.1,9.5-46.2,28.4
	l-60.2,76.3c-24.7,31.8-37.1,57.1-37.1,75.9c0,17.1,16.5,26.2,49.4,27.4c12.4,0.3,18.5,3.2,18.5,8.8c0,3.5-1.3,5.7-4,6.4
	c-2.6,0.7-12.4,1.1-29.1,1.1l-131.5-2.2l-30.5,0.9c-6.2,0-9.3-2-9.3-5.9c0-5.1,4.4-8.6,13.2-10.4c10.9-2,24-7.2,39.3-15.6
	c15.3-8.3,28.8-17.9,40.4-28.6c11.6-10.7,28.8-29.7,51.4-56.9l114.4-143.1l118.5-146.3c24.1-27.1,54.6-65.2,91.1-110.5
	c25.9-32.1,49.6-45.9,55.2-49.4C640,33.2,660.4,22.9,703.9,15z M544.4,360c11.7-41.9,23.8-83.8,36.4-125.8
	c14.4-52,24.2-85.5,29.6-100.5c2.7-9.2,4.1-17.3,4.1-24.4c0-5.6-2.1-8.4-6.2-8.4c-4.7,0-12.2,5.2-22.4,15.5
	c-10.2,10.3-35.6,39.6-76,87.8l-88.9,106.7c-18.9,22.9-28.3,36-28.3,39.3c0,5.7,4,8.9,11.9,9.8l11.1-0.4L544.4,360z"/>
<g>
	<path d="M230.7,449.6c7.9-6.2,35.7-35,83.2-86.6c47.5-51.5,91.4-102.2,131.5-152s64.4-82.5,72.8-98.3c8.4-15.8,12.6-30.6,12.6-44.4
		c0-27.7-17.1-42.4-51.2-44.2c-11.5-0.6-17.2-3.4-17.2-8.4c0-6.5,5-9.7,15-9.7c4.1,0,17.2,0.3,39.3,0.9l68.4-1.8
		c58.6,0,93,0.4,103.3,1.3c10.3,0.9,15.4,3.7,15.4,8.4c0,4.1-7.5,7.7-22.5,10.6c-30.3,5.9-55.2,16.6-74.6,32.3
		c-19.4,15.6-77.6,94.9-187,225.9c-40,48-115.4,166.2-195.7,251c-39.7,41.5-113.5,63.5-120.2,63.5c-4.1,0,122-474,122-511.7
		c0-15.9-6-29.3-17.9-40.2S178.8,30,156.1,30c-6.8,0-10.2-2.6-10.2-7.9c0-6.2,6.5-9.3,19.4-9.3l98.9,2.2c28.5,0,60.2-1.6,94.9-4.9
		c17.9-1.8,32.1-2.6,42.4-2.6c6.2,0,9.3,2.5,9.3,7.5c0,5.3-3.8,8.2-11.5,8.8c-26.2,2.4-44,6.9-53.4,13.7c-9.4,6.8-18.4,21.4-26.9,44
		c-8.5,22.5-21.2,68.9-38,139.2C264.3,290.9,247.5,367.2,230.7,449.6z"/>
</g>
</svg>
